<svg width="32" height="32" viewBox="0 0 32 32" fill="none" xmlns="http://www.w3.org/2000/svg">
  <rect width="32" height="32" rx="6" fill="#000000"/>
  <path d="M8 12C8 10.8954 8.89543 10 10 10H14C17.3137 10 20 12.6863 20 16C20 19.3137 17.3137 22 14 22H10C8.89543 22 8 21.1046 8 20V12Z" fill="#00FF88"/>
  <path d="M12 16C12 14.8954 12.8954 14 14 14H18C19.1046 14 20 14.8954 20 16C20 17.1046 19.1046 18 18 18H14C12.8954 18 12 17.1046 12 16Z" fill="#39FF14"/>
  <circle cx="24" cy="16" r="3" fill="#00FF88"/>
  <circle cx="24" cy="16" r="1.5" fill="#000000"/>
</svg>